0
SECTION
2
HEADER
9
$ACADVER
1
AC1027
0
ENDSEC
0
SECTION
2
ENTITIES
0
LWPOLYLINE
8
piece=front;size=M
90
12
70
1
10
12
20
72
10
44
20
72
10
46
20
28
10
56
20
25
10
50
20
10
10
40
20
4
10
34
20
10
10
22
20
10
10
16
20
4
10
6
20
10
10
0
20
25
10
10
20
28
0
LWPOLYLINE
8
piece=back;size=M
90
12
70
1
10
12
20
72
10
44
20
72
10
46
20
28
10
56
20
25
10
50
20
10
10
41
20
4
10
35
20
8
10
21
20
8
10
15
20
4
10
6
20
10
10
0
20
25
10
10
20
28
0
LWPOLYLINE
8
piece=sleeve;size=M
90
6
70
1
10
0
20
0
10
24
20
0
10
30
20
18
10
18
20
28
10
4
20
22
10
-2
20
10
0
LWPOLYLINE
8
piece=sleeve;size=M
90
6
70
1
10
0
20
0
10
24
20
0
10
30
20
18
10
18
20
28
10
4
20
22
10
-2
20
10
0
LWPOLYLINE
8
piece=neckband;size=M
90
4
70
1
10
0
20
0
10
36
20
0
10
36
20
5
10
0
20
5
0
ENDSEC
0
EOF
