<svg xmlns="http://www.w3.org/2000/svg" viewBox="0 0 216.25 193.340344" preserveAspectRatio="xMidYMid meet" role="img" data-unit="cm" data-warning="BBOX_FALLBACK_USED"><title>Marker layout</title><desc>Polygon-aware compact search did not pass full-outline validation; bbox fallback layout was used.</desc><rect class="fabric-boundary" x="0" y="0" width="150" height="193.340344" fill="none" stroke="#1f2937" stroke-width="0.375" /><g class="piece" data-piece-id="piece_0001" data-layer="1" data-rotation="0" transform="translate(0 0)"><polygon class="piece-shape" points="5.70264,24.512598 5.464359,23.500147 5.178711,22.500183 5.022684,22.003857 4.853519,21.512109 4.666391,21.027051 4.467288,20.546558 4.054199,19.592456 3.61572,18.649255 3.150391,17.719128 2.828311,17.105188 2.499722,16.49491 2.166989,15.886609 1.667972,14.973242 1.179691,14.055457 0.680661,13.143018 0.329099,12.52345 0,11.951831 0.979001,11.680859 1.947751,11.37926 2.90625,11.045264 3.855472,10.684302 4.79639,10.300891 5.72803,9.895667 6.649411,9.471069 7.562009,9.026416 8.464841,8.561865 9.35791,8.078101 10.237302,7.578455 11.104977,7.05863 11.679306,6.695215 12.247647,6.322754 12.812497,5.944544 14.493649,4.805249 15.118649,4.383789 16.18262,3.677551 17.037106,3.128223 17.902829,2.59801 18.783688,2.093518 19.683109,1.623779 20.141061,1.40426 20.604489,1.196521 21.073471,1.001856 21.548337,0.822083 22.029062,0.658887 22.51514,0.512354 23.005466,0.38241 23.499997,0.26936 23.997647,0.174207 24.498544,0.098999 25.511716,0 26.461386,0.080237 26.933945,0.141724 27.404196,0.219629 27.87175,0.312073 28.336246,0.418616 28.797348,0.539075 29.254697,0.673096 29.707987,0.820227 30.15701,0.979919 30.601517,1.151807 31.040884,1.336401 31.474582,1.53396 31.902805,1.743115 32.746768,2.185877 33.5793,2.64978 33.675382,2.706958 34.398282,3.137195 34.531967,3.221619 35.204099,3.646069 35.99805,4.174707 36.519205,4.538391 37.035721,4.908289 37.549319,5.282593 39.082028,6.415039 39.850314,6.979871 40.626462,7.533606 41.150766,7.892786 41.679422,8.245288 42.210941,8.593933 43.281162,9.279382 43.824899,9.608154 44.37587,9.924695 44.934055,10.228442 45.498825,10.519775 46.069687,10.798901 46.647049,11.064429 47.231479,11.31416 47.823642,11.544507 48.423398,11.754138 49.027341,11.9521 48.492905,13.033948 47.965793,14.119238 46.938919,16.303162 46.682217,16.84939 46.427274,17.396155 46.17728,17.945068 45.935446,18.497754 45.749735,18.943225 45.570853,19.391382 45.398166,19.841992 45.231039,20.294861 45.068851,20.749744 44.76611,21.67168 44.520017,22.610278 44.307126,23.556909 44.137705,24.512476 41.397946,24.299487 40.484299,24.232007 39.570633,24.168994 38.656247,24.112878 37.970047,24.076502 37.283841,24.044971 36.59744,24.017847 35.910642,23.994714 34.537448,23.958362 33.16406,23.930188 31.790073,23.905542 30.416019,23.886096 29.042264,23.874097 27.66846,23.867883 24.920407,23.86311 23.546127,23.861951 22.171878,23.866357 20.798093,23.880335 19.424319,23.898853 18.508206,23.910657 17.592398,23.922461 16.676761,23.935523 15.761179,23.951099 14.845529,23.970459 13.929691,23.994861 13.24277,24.017224 12.556235,24.043628 11.869907,24.074597 11.183591,24.110669 10.269351,24.166882 9.355856,24.230359 8.44238,24.298438" fill="#dbeafe" stroke="#2563eb" stroke-width="0.375" /><text class="piece-label" x="24.51367" y="12.256299" text-anchor="middle" dominant-baseline="middle" font-size="4.285714" fill="#111827">piece_0001</text></g><g class="piece" data-piece-id="piece_0002" data-layer="14" data-rotation="0" transform="translate(49.227341 0)"><polygon class="piece-shape" points="5.70264,24.512598 5.464359,23.500147 5.178711,22.500183 5.022684,22.003857 4.853519,21.512109 4.666391,21.027051 4.467288,20.546558 4.054199,19.592456 3.61572,18.649255 3.150391,17.719128 2.828311,17.105188 2.499722,16.49491 2.166989,15.886609 1.667972,14.973242 1.179691,14.055457 0.680661,13.143018 0.329099,12.52345 0,11.951831 0.979001,11.680859 1.947751,11.37926 2.90625,11.045264 3.855472,10.684302 4.79639,10.300891 5.72803,9.895667 6.649411,9.471069 7.562009,9.026416 8.464841,8.561865 9.35791,8.078101 10.237302,7.578455 11.104977,7.05863 11.679306,6.695215 12.247647,6.322754 12.812497,5.944544 14.493649,4.805249 15.118649,4.383789 16.18262,3.677551 17.037106,3.128223 17.902829,2.59801 18.783688,2.093518 19.683109,1.623779 20.141061,1.40426 20.604489,1.196521 21.073471,1.001856 21.548337,0.822083 22.029062,0.658887 22.51514,0.512354 23.005466,0.38241 23.499997,0.26936 23.997647,0.174207 24.498544,0.098999 25.511716,0 26.461386,0.080237 26.933945,0.141724 27.404196,0.219629 27.87175,0.312073 28.336246,0.418616 28.797348,0.539075 29.254697,0.673096 29.707987,0.820227 30.15701,0.979919 30.601517,1.151807 31.040884,1.336401 31.474582,1.53396 31.902805,1.743115 32.746768,2.185877 33.5793,2.64978 33.675382,2.706958 34.398282,3.137195 34.531967,3.221619 35.204099,3.646069 35.99805,4.174707 36.519205,4.538391 37.035721,4.908289 37.549319,5.282593 39.082028,6.415039 39.850314,6.979871 40.626462,7.533606 41.150766,7.892786 41.679422,8.245288 42.210941,8.593933 43.281162,9.279382 43.824899,9.608154 44.37587,9.924695 44.934055,10.228442 45.498825,10.519775 46.069687,10.798901 46.647049,11.064429 47.231479,11.31416 47.823642,11.544507 48.423398,11.754138 49.027341,11.9521 48.492905,13.033948 47.965793,14.119238 46.938919,16.303162 46.682217,16.84939 46.427274,17.396155 46.17728,17.945068 45.935446,18.497754 45.749735,18.943225 45.570853,19.391382 45.398166,19.841992 45.231039,20.294861 45.068851,20.749744 44.76611,21.67168 44.520017,22.610278 44.307126,23.556909 44.137705,24.512476 41.397946,24.299487 40.484299,24.232007 39.570633,24.168994 38.656247,24.112878 37.970047,24.076502 37.283841,24.044971 36.59744,24.017847 35.910642,23.994714 34.537448,23.958362 33.16406,23.930188 31.790073,23.905542 30.416019,23.886096 29.042264,23.874097 27.66846,23.867883 24.920407,23.86311 23.546127,23.861951 22.171878,23.866357 20.798093,23.880335 19.424319,23.898853 18.508206,23.910657 17.592398,23.922461 16.676761,23.935523 15.761179,23.951099 14.845529,23.970459 13.929691,23.994861 13.24277,24.017224 12.556235,24.043628 11.869907,24.074597 11.183591,24.110669 10.269351,24.166882 9.355856,24.230359 8.44238,24.298438" fill="#dbeafe" stroke="#2563eb" stroke-width="0.375" /><text class="piece-label" x="24.51367" y="12.256299" text-anchor="middle" dominant-baseline="middle" font-size="4.285714" fill="#111827">piece_0002</text></g><g class="piece" data-piece-id="piece_0003" data-layer="1" data-rotation="0" transform="translate(98.454681 0)"><polygon class="piece-shape" points="0,2 0,0 5.5,0 13.5,0 25,0 36.5,0 39,0 39,2 36.5,2 25,2 13.5,2 5.5,2" fill="#dbeafe" stroke="#2563eb" stroke-width="0.375" /><text class="piece-label" x="19.5" y="1" text-anchor="middle" dominant-baseline="middle" font-size="4.285714" fill="#111827">piece_0003</text></g><g class="piece" data-piece-id="piece_0004" data-layer="14" data-rotation="0" transform="translate(9.827341 24.712598)"><polygon class="piece-shape" points="0,2 0,0 5.5,0 13.5,0 25,0 36.5,0 39,0 39,2 36.5,2 25,2 13.5,2 5.5,2" fill="#dbeafe" stroke="#2563eb" stroke-width="0.375" /><text class="piece-label" x="19.5" y="1" text-anchor="middle" dominant-baseline="middle" font-size="4.285714" fill="#111827">piece_0004</text></g><g class="piece" data-piece-id="piece_0005" data-layer="1" data-rotation="0" transform="translate(39.2 24.312598)"><polygon class="piece-shape" points="43.324701,24.512598 43.562982,23.500159 43.84863,22.500183 44.004657,22.003857 44.173822,21.512097 44.36095,21.027051 44.560053,20.546558 44.973142,19.592456 45.411621,18.649255 45.87695,17.719128 46.19903,17.105188 46.527619,16.49491 46.860352,15.886609 47.359369,14.973242 47.84765,14.055457 48.34668,13.14303 48.698242,12.52345 49.027341,11.951831 48.04834,11.680847 47.07959,11.37926 46.121091,11.045264 45.171869,10.684302 44.230951,10.300891 43.29931,9.895667 42.37793,9.471057 41.465332,9.026416 40.5625,8.561865 39.669431,8.078101 38.790039,7.578454 37.92236,7.05863 37.348035,6.695203 36.779694,6.322754 36.214844,5.944543 34.533691,4.805249 33.908691,4.383777 32.844721,3.677551 31.990234,3.128223 31.124512,2.59801 30.243652,2.093518 29.344232,1.623779 28.886279,1.40426 28.422852,1.196521 27.95387,1.001855 27.479004,0.822083 26.998279,0.658887 26.512201,0.512353 26.021875,0.38241 25.527344,0.26936 25.029694,0.174207 24.528796,0.098999 23.515625,0 22.565955,0.080237 22.093396,0.141724 21.623145,0.219629 21.155591,0.312073 20.691095,0.418616 20.229993,0.539075 19.772644,0.673096 19.319354,0.820227 18.870331,0.979919 18.425824,1.151807 17.986456,1.336401 17.552759,1.53396 17.124536,1.743115 16.280573,2.185876 15.448041,2.64978 15.351965,2.706958 14.629059,3.137195 14.495374,3.221619 13.823242,3.646069 13.029291,4.174707 12.508136,4.538391 11.99162,4.908288 11.478021,5.282593 9.945312,6.415039 9.177026,6.979871 8.400879,7.533606 7.876575,7.892786 7.347919,8.245288 6.8164,8.593933 5.746179,9.279382 5.202441,9.608154 4.651471,9.924695 4.093286,10.228454 3.528516,10.519775 2.957654,10.798901 2.380292,11.064429 1.795862,11.31416 1.203699,11.544507 0.603943,11.754138 0,11.9521 0.534436,13.033948 1.061548,14.119238 2.088422,16.303162 2.345123,16.84939 2.600067,17.396155 2.850061,17.945068 3.091895,18.497754 3.277606,18.943225 3.456488,19.39137 3.629175,19.841992 3.796301,20.294861 3.95849,20.749744 4.26123,21.67168 4.507324,22.610278 4.720215,23.556909 4.889636,24.512476 7.629395,24.299499 8.543042,24.231995 9.456708,24.169006 10.371094,24.112878 11.057294,24.076501 11.7435,24.044971 12.429901,24.017834 13.116699,23.994714 14.489893,23.958362 15.863281,23.930188 17.237268,23.905542 18.611322,23.886096 19.985077,23.874097 21.358881,23.867883 24.106934,23.86311 25.481213,23.861951 26.855463,23.866357 28.229248,23.880334 29.603021,23.898853 30.519135,23.910657 31.434943,23.922461 32.35058,23.935522 33.266162,23.951099 34.181812,23.970459 35.09765,23.994861 35.78457,24.017224 36.471106,24.043628 37.157434,24.074597 37.84375,24.110657 38.75799,24.166882 39.671484,24.230359 40.584961,24.298438" fill="#dbeafe" stroke="#2563eb" stroke-width="0.375" /><text class="piece-label" x="24.51367" y="12.256299" text-anchor="middle" dominant-baseline="middle" font-size="4.285714" fill="#111827">piece_0005</text></g><g class="piece" data-piece-id="piece_0006" data-layer="14" data-rotation="0" transform="translate(97.419519 2.2)"><polygon class="piece-shape" points="43.324701,24.512598 43.562982,23.500159 43.84863,22.500183 44.004657,22.003857 44.173822,21.512097 44.36095,21.027051 44.560053,20.546558 44.973142,19.592456 45.411621,18.649255 45.87695,17.719128 46.19903,17.105188 46.527619,16.49491 46.860352,15.886609 47.359369,14.973242 47.84765,14.055457 48.34668,13.14303 48.698242,12.52345 49.027341,11.951831 48.04834,11.680847 47.07959,11.37926 46.121091,11.045264 45.171869,10.684302 44.230951,10.300891 43.29931,9.895667 42.37793,9.471057 41.465332,9.026416 40.5625,8.561865 39.669431,8.078101 38.790039,7.578454 37.92236,7.05863 37.348035,6.695203 36.779694,6.322754 36.214844,5.944543 34.533691,4.805249 33.908691,4.383777 32.844721,3.677551 31.990234,3.128223 31.124512,2.59801 30.243652,2.093518 29.344232,1.623779 28.886279,1.40426 28.422852,1.196521 27.95387,1.001855 27.479004,0.822083 26.998279,0.658887 26.512201,0.512353 26.021875,0.38241 25.527344,0.26936 25.029694,0.174207 24.528796,0.098999 23.515625,0 22.565955,0.080237 22.093396,0.141724 21.623145,0.219629 21.155591,0.312073 20.691095,0.418616 20.229993,0.539075 19.772644,0.673096 19.319354,0.820227 18.870331,0.979919 18.425824,1.151807 17.986456,1.336401 17.552759,1.53396 17.124536,1.743115 16.280573,2.185876 15.448041,2.64978 15.351965,2.706958 14.629059,3.137195 14.495374,3.221619 13.823242,3.646069 13.029291,4.174707 12.508136,4.538391 11.99162,4.908288 11.478021,5.282593 9.945312,6.415039 9.177026,6.979871 8.400879,7.533606 7.876575,7.892786 7.347919,8.245288 6.8164,8.593933 5.746179,9.279382 5.202441,9.608154 4.651471,9.924695 4.093286,10.228454 3.528516,10.519775 2.957654,10.798901 2.380292,11.064429 1.795862,11.31416 1.203699,11.544507 0.603943,11.754138 0,11.9521 0.534436,13.033948 1.061548,14.119238 2.088422,16.303162 2.345123,16.84939 2.600067,17.396155 2.850061,17.945068 3.091895,18.497754 3.277606,18.943225 3.456488,19.39137 3.629175,19.841992 3.796301,20.294861 3.95849,20.749744 4.26123,21.67168 4.507324,22.610278 4.720215,23.556909 4.889636,24.512476 7.629395,24.299499 8.543042,24.231995 9.456708,24.169006 10.371094,24.112878 11.057294,24.076501 11.7435,24.044971 12.429901,24.017834 13.116699,23.994714 14.489893,23.958362 15.863281,23.930188 17.237268,23.905542 18.611322,23.886096 19.985077,23.874097 21.358881,23.867883 24.106934,23.86311 25.481213,23.861951 26.855463,23.866357 28.229248,23.880334 29.603021,23.898853 30.519135,23.910657 31.434943,23.922461 32.35058,23.935522 33.266162,23.951099 34.181812,23.970459 35.09765,23.994861 35.78457,24.017224 36.471106,24.043628 37.157434,24.074597 37.84375,24.110657 38.75799,24.166882 39.671484,24.230359 40.584961,24.298438" fill="#dbeafe" stroke="#2563eb" stroke-width="0.375" /><text class="piece-label" x="24.51367" y="12.256299" text-anchor="middle" dominant-baseline="middle" font-size="4.285714" fill="#111827">piece_0006</text></g><g class="piece" data-piece-id="piece_0007" data-layer="1" data-rotation="0" transform="translate(0 49.025195)"><polygon class="piece-shape" points="29.009753,10.109229 29.547591,10.086792 30.083914,10.047632 30.439959,10.005115 30.794381,9.949719 31.147227,9.883337 31.498105,9.807251 31.846033,9.719898 32.190225,9.618933 32.529582,9.502625 32.863417,9.371179 33.191341,9.22522 33.512649,9.065442 33.826784,8.892346 34.133459,8.706201 34.432223,8.507459 34.722642,8.296851 35.004668,8.074915 35.2779,7.842334 35.541731,7.599341 35.795705,7.345874 36.039106,7.082129 36.271037,6.808411 36.4908,6.524792 36.69778,6.231738 36.892426,5.930408 37.07568,5.621802 37.248167,5.307092 37.409904,4.986926 37.560952,4.661548 37.768073,4.165002 37.955554,3.660547 38.086477,3.275903 38.208102,2.88844 38.319812,2.497949 38.441185,2.02207 38.549304,1.542847 38.655601,1.004285 38.741199,0.462305 38.796374,0 52.337878,5.41377 51.991675,6.389404 51.83439,6.881482 51.688953,7.37727 51.429175,8.378565 51.21239,9.390063 51.040515,10.40979 50.903296,11.4354 50.792456,12.463843 50.710925,13.494995 50.657703,14.528052 50.631824,15.562183 50.630359,16.596533 50.642523,17.182141 50.651843,17.630762 50.693835,18.662939 50.756824,19.693921 50.838354,20.72688 50.953113,21.756055 51.025964,22.268323 51.110815,22.778711 51.208676,23.286328 51.319324,23.791358 51.443013,24.294251 51.582495,24.792944 51.740637,25.284692 51.91991,25.769165 52.052371,26.088098 52.195315,26.402356 52.349109,26.711548 52.513475,27.014295 52.688626,27.310828 52.874499,27.600903 53.071736,27.88501 53.280005,28.160974 53.499976,28.42793 53.730626,28.683032 53.973732,28.926086 54.229956,29.155261 54.499992,29.369299 54.782025,29.567297 55.074695,29.749378 55.376621,29.915564 55.686713,30.065723 56.004382,30.199988 56.324652,30.316553 56.650555,30.415173 56.981433,30.493591 57.325122,30.55227 57.671558,30.59502 58.019519,30.629871 56.009753,71.858856 29.009753,71.858856 2.009766,71.858856 0,30.629871 0.347958,30.59502 0.694391,30.55227 1.038074,30.493591 1.368951,30.415173 1.694855,30.316553 2.015124,30.199988 2.332794,30.065723 2.642886,29.915564 2.944812,29.749378 3.237482,29.567297 3.519514,29.369299 3.789551,29.155261 4.045775,28.926086 4.288881,28.683032 4.519531,28.42793 4.739502,28.160974 4.947771,27.884998 5.145007,27.600903 5.330881,27.310828 5.506032,27.014295 5.670398,26.711548 5.824191,26.402356 5.967136,26.088098 6.099597,25.769165 6.27887,25.284692 6.437012,24.792944 6.576494,24.294251 6.700183,23.791358 6.810831,23.286328 6.908691,22.778711 6.993542,22.268323 7.066394,21.756055 7.181152,20.72688 7.262683,19.693921 7.325671,18.662939 7.367663,17.630762 7.376982,17.182141 7.389148,16.596533 7.387683,15.562183 7.361804,14.528052 7.308581,13.494995 7.227051,12.463843 7.116211,11.4354 6.978992,10.40979 6.807117,9.390063 6.590332,8.378565 6.330554,7.37727 6.185117,6.881482 6.027832,6.389404 5.681641,5.41377 19.223144,0 19.278308,0.462305 19.363903,1.004285 19.470203,1.542847 19.578323,2.02207 19.699695,2.497949 19.811404,2.88844 19.93303,3.275903 20.063953,3.660547 20.251433,4.165002 20.458555,4.661548 20.609602,4.986926 20.77134,5.307092 20.943826,5.621802 21.127081,5.930408 21.321727,6.231738 21.528707,6.524792 21.748469,6.808411 21.980401,7.082129 22.223801,7.345874 22.477775,7.599341 22.741607,7.842334 23.014839,8.074915 23.296865,8.296851 23.587283,8.507459 23.886048,8.706201 24.192723,8.892346 24.506858,9.065442 24.828166,9.22522 25.156089,9.371179 25.489925,9.502625 25.829281,9.618933 26.173474,9.719898 26.521402,9.807251 26.87228,9.883337 27.225126,9.949719 27.579548,10.005115 27.935593,10.047632 28.471915,10.086792" fill="#dbeafe" stroke="#2563eb" stroke-width="0.375" /><text class="piece-label" x="29.00976" y="35.929428" text-anchor="middle" dominant-baseline="middle" font-size="4.285714" fill="#111827">piece_0007</text></g><g class="piece" data-piece-id="piece_0008" data-layer="14" data-rotation="0" transform="translate(88.427341 26.912598)"><polygon class="piece-shape" points="29.009753,10.109229 29.547591,10.086792 30.083914,10.047632 30.439959,10.005115 30.794381,9.949719 31.147227,9.883337 31.498105,9.807251 31.846033,9.719898 32.190225,9.618933 32.529582,9.502625 32.863417,9.371179 33.191341,9.22522 33.512649,9.065442 33.826784,8.892346 34.133459,8.706201 34.432223,8.507459 34.722642,8.296851 35.004668,8.074915 35.2779,7.842334 35.541731,7.599341 35.795705,7.345874 36.039106,7.082129 36.271037,6.808411 36.4908,6.524792 36.69778,6.231738 36.892426,5.930408 37.07568,5.621802 37.248167,5.307092 37.409904,4.986926 37.560952,4.661548 37.768073,4.165002 37.955554,3.660547 38.086477,3.275903 38.208102,2.88844 38.319812,2.497949 38.441185,2.02207 38.549304,1.542847 38.655601,1.004285 38.741199,0.462305 38.796374,0 52.337878,5.41377 51.991675,6.389404 51.83439,6.881482 51.688953,7.37727 51.429175,8.378565 51.21239,9.390063 51.040515,10.40979 50.903296,11.4354 50.792456,12.463843 50.710925,13.494995 50.657703,14.528052 50.631824,15.562183 50.630359,16.596533 50.642523,17.182141 50.651843,17.630762 50.693835,18.662939 50.756824,19.693921 50.838354,20.72688 50.953113,21.756055 51.025964,22.268323 51.110815,22.778711 51.208676,23.286328 51.319324,23.791358 51.443013,24.294251 51.582495,24.792944 51.740637,25.284692 51.91991,25.769165 52.052371,26.088098 52.195315,26.402356 52.349109,26.711548 52.513475,27.014295 52.688626,27.310828 52.874499,27.600903 53.071736,27.88501 53.280005,28.160974 53.499976,28.42793 53.730626,28.683032 53.973732,28.926086 54.229956,29.155261 54.499992,29.369299 54.782025,29.567297 55.074695,29.749378 55.376621,29.915564 55.686713,30.065723 56.004382,30.199988 56.324652,30.316553 56.650555,30.415173 56.981433,30.493591 57.325122,30.55227 57.671558,30.59502 58.019519,30.629871 56.009753,71.858856 29.009753,71.858856 2.009766,71.858856 0,30.629871 0.347958,30.59502 0.694391,30.55227 1.038074,30.493591 1.368951,30.415173 1.694855,30.316553 2.015124,30.199988 2.332794,30.065723 2.642886,29.915564 2.944812,29.749378 3.237482,29.567297 3.519514,29.369299 3.789551,29.155261 4.045775,28.926086 4.288881,28.683032 4.519531,28.42793 4.739502,28.160974 4.947771,27.884998 5.145007,27.600903 5.330881,27.310828 5.506032,27.014295 5.670398,26.711548 5.824191,26.402356 5.967136,26.088098 6.099597,25.769165 6.27887,25.284692 6.437012,24.792944 6.576494,24.294251 6.700183,23.791358 6.810831,23.286328 6.908691,22.778711 6.993542,22.268323 7.066394,21.756055 7.181152,20.72688 7.262683,19.693921 7.325671,18.662939 7.367663,17.630762 7.376982,17.182141 7.389148,16.596533 7.387683,15.562183 7.361804,14.528052 7.308581,13.494995 7.227051,12.463843 7.116211,11.4354 6.978992,10.40979 6.807117,9.390063 6.590332,8.378565 6.330554,7.37727 6.185117,6.881482 6.027832,6.389404 5.681641,5.41377 19.223144,0 19.278308,0.462305 19.363903,1.004285 19.470203,1.542847 19.578323,2.02207 19.699695,2.497949 19.811404,2.88844 19.93303,3.275903 20.063953,3.660547 20.251433,4.165002 20.458555,4.661548 20.609602,4.986926 20.77134,5.307092 20.943826,5.621802 21.127081,5.930408 21.321727,6.231738 21.528707,6.524792 21.748469,6.808411 21.980401,7.082129 22.223801,7.345874 22.477775,7.599341 22.741607,7.842334 23.014839,8.074915 23.296865,8.296851 23.587283,8.507459 23.886048,8.706201 24.192723,8.892346 24.506858,9.065442 24.828166,9.22522 25.156089,9.371179 25.489925,9.502625 25.829281,9.618933 26.173474,9.719898 26.521402,9.807251 26.87228,9.883337 27.225126,9.949719 27.579548,10.005115 27.935593,10.047632 28.471915,10.086792" fill="#dbeafe" stroke="#2563eb" stroke-width="0.375" /><text class="piece-label" x="29.00976" y="35.929428" text-anchor="middle" dominant-baseline="middle" font-size="4.285714" fill="#111827">piece_0008</text></g><g class="piece" data-piece-id="piece_0009" data-layer="1" data-rotation="0" transform="translate(0 121.484052)"><polygon class="piece-shape" points="29.009766,71.856293 2.009766,71.856293 0,30.629651 0.455786,30.438281 0.902344,30.228223 1.186011,30.072681 1.461926,29.903272 1.730469,29.721924 1.994189,29.528479 2.249744,29.324793 2.496582,29.110376 2.733179,28.885449 2.958252,28.64917 3.169922,28.400952 3.366382,28.141333 3.548914,27.871643 3.719238,27.593848 3.956103,27.163245 4.171387,26.721582 4.366663,26.273035 4.543457,25.816895 4.727429,25.275647 4.890295,24.727588 5.035535,24.174707 5.164514,23.617871 5.278393,23.057715 5.379297,22.495044 5.469251,21.930567 5.548498,21.364514 5.676453,20.228516 5.770019,19.089111 5.823962,18.110864 5.868652,17.132031 5.931152,15.810718 5.961426,14.811182 5.97102,14.013037 5.969726,13.214819 5.956006,12.235108 5.928711,11.255689 5.873962,10.081213 5.833215,9.494751 5.781262,8.909204 5.716907,8.324902 5.639831,7.742102 5.549512,7.161145 5.443811,6.582886 5.191406,5.43457 18.725098,0 19.043323,0.422937 19.374512,0.835596 19.598694,1.089649 19.83385,1.333472 20.080566,1.565503 20.40625,1.839038 20.938476,2.230713 21.242126,2.427271 21.554822,2.608765 21.876953,2.772559 22.196545,2.912073 22.523096,3.034754 22.85498,3.142993 23.192737,3.239319 23.53346,3.323462 23.876953,3.395728 24.336206,3.473755 24.79834,3.532398 25.731445,3.602686 26.563965,3.63457 27.398926,3.642993 29.009766,3.65 30.620605,3.642993 31.455566,3.63457 32.288086,3.602686 33.221191,3.532398 33.683325,3.473755 34.142578,3.395728 34.486072,3.323462 34.826794,3.239307 35.164551,3.142993 35.496435,3.034754 35.822986,2.912073 36.142578,2.772559 36.46471,2.608765 36.777405,2.427271 37.081055,2.230713 37.613281,1.839038 37.938965,1.565503 38.185681,1.333472 38.420837,1.089649 38.645019,0.835596 38.976208,0.422937 39.294434,0 52.828125,5.43457 52.57572,6.582886 52.470019,7.161145 52.3797,7.742102 52.302624,8.324902 52.238269,8.909204 52.186316,9.494751 52.145569,10.081213 52.09082,11.255689 52.063525,12.235108 52.049805,13.214819 52.048511,14.013037 52.058105,14.811182 52.088379,15.810718 52.150879,17.132031 52.195569,18.110864 52.249512,19.089111 52.343079,20.228516 52.471033,21.364514 52.550281,21.930567 52.640234,22.495044 52.74115,23.057715 52.855017,23.617871 52.983997,24.174707 53.129236,24.727588 53.292102,25.275647 53.476074,25.816895 53.652869,26.273035 53.848145,26.721582 54.063428,27.163245 54.300293,27.593848 54.470618,27.871643 54.653149,28.141333 54.849609,28.400952 55.061279,28.64917 55.286353,28.885449 55.522949,29.110376 55.769788,29.324793 56.025342,29.528479 56.289063,29.721924 56.557605,29.903272 56.83352,30.072681 57.117188,30.228223 57.563745,30.438281 58.019531,30.629651 56.009766,71.856293" fill="#dbeafe" stroke="#2563eb" stroke-width="0.375" /><text class="piece-label" x="29.009766" y="35.928146" text-anchor="middle" dominant-baseline="middle" font-size="4.285714" fill="#111827">piece_0009</text></g><g class="piece" data-piece-id="piece_0010" data-layer="14" data-rotation="0" transform="translate(58.219507 121.284052)"><polygon class="piece-shape" points="29.009766,71.856293 2.009766,71.856293 0,30.629651 0.455786,30.438281 0.902344,30.228223 1.186011,30.072681 1.461926,29.903272 1.730469,29.721924 1.994189,29.528479 2.249744,29.324793 2.496582,29.110376 2.733179,28.885449 2.958252,28.64917 3.169922,28.400952 3.366382,28.141333 3.548914,27.871643 3.719238,27.593848 3.956103,27.163245 4.171387,26.721582 4.366663,26.273035 4.543457,25.816895 4.727429,25.275647 4.890295,24.727588 5.035535,24.174707 5.164514,23.617871 5.278393,23.057715 5.379297,22.495044 5.469251,21.930567 5.548498,21.364514 5.676453,20.228516 5.770019,19.089111 5.823962,18.110864 5.868652,17.132031 5.931152,15.810718 5.961426,14.811182 5.97102,14.013037 5.969726,13.214819 5.956006,12.235108 5.928711,11.255689 5.873962,10.081213 5.833215,9.494751 5.781262,8.909204 5.716907,8.324902 5.639831,7.742102 5.549512,7.161145 5.443811,6.582886 5.191406,5.43457 18.725098,0 19.043323,0.422937 19.374512,0.835596 19.598694,1.089649 19.83385,1.333472 20.080566,1.565503 20.40625,1.839038 20.938476,2.230713 21.242126,2.427271 21.554822,2.608765 21.876953,2.772559 22.196545,2.912073 22.523096,3.034754 22.85498,3.142993 23.192737,3.239319 23.53346,3.323462 23.876953,3.395728 24.336206,3.473755 24.79834,3.532398 25.731445,3.602686 26.563965,3.63457 27.398926,3.642993 29.009766,3.65 30.620605,3.642993 31.455566,3.63457 32.288086,3.602686 33.221191,3.532398 33.683325,3.473755 34.142578,3.395728 34.486072,3.323462 34.826794,3.239307 35.164551,3.142993 35.496435,3.034754 35.822986,2.912073 36.142578,2.772559 36.46471,2.608765 36.777405,2.427271 37.081055,2.230713 37.613281,1.839038 37.938965,1.565503 38.185681,1.333472 38.420837,1.089649 38.645019,0.835596 38.976208,0.422937 39.294434,0 52.828125,5.43457 52.57572,6.582886 52.470019,7.161145 52.3797,7.742102 52.302624,8.324902 52.238269,8.909204 52.186316,9.494751 52.145569,10.081213 52.09082,11.255689 52.063525,12.235108 52.049805,13.214819 52.048511,14.013037 52.058105,14.811182 52.088379,15.810718 52.150879,17.132031 52.195569,18.110864 52.249512,19.089111 52.343079,20.228516 52.471033,21.364514 52.550281,21.930567 52.640234,22.495044 52.74115,23.057715 52.855017,23.617871 52.983997,24.174707 53.129236,24.727588 53.292102,25.275647 53.476074,25.816895 53.652869,26.273035 53.848145,26.721582 54.063428,27.163245 54.300293,27.593848 54.470618,27.871643 54.653149,28.141333 54.849609,28.400952 55.061279,28.64917 55.286353,28.885449 55.522949,29.110376 55.769788,29.324793 56.025342,29.528479 56.289063,29.721924 56.557605,29.903272 56.83352,30.072681 57.117188,30.228223 57.563745,30.438281 58.019531,30.629651 56.009766,71.856293" fill="#dbeafe" stroke="#2563eb" stroke-width="0.375" /><text class="piece-label" x="29.009766" y="35.928146" text-anchor="middle" dominant-baseline="middle" font-size="4.285714" fill="#111827">piece_0010</text></g><g class="marker-info" transform="translate(156.25 0)"><rect class="marker-info-background" x="0" y="0" width="60" height="193.340344" fill="#f8fafc" stroke="#94a3b8" stroke-width="0.375" /><text class="marker-info-label" x="4.285714" y="6.214286" font-size="4.285714" fill="#0f172a">fabric width: 150 cm</text><text class="marker-info-label" x="4.285714" y="12.428571" font-size="4.285714" fill="#0f172a">marker length: 193.340344 cm</text><text class="marker-info-label" x="4.285714" y="18.642857" font-size="4.285714" fill="#0f172a">grainline: present</text><text class="marker-info-label" x="4.285714" y="24.857143" font-size="4.285714" fill="#0f172a">rotation: 0 deg</text><line class="grainline-direction" x1="5.142857" y1="31.071429" x2="5.142857" y2="185.626059" stroke="#475569" stroke-width="0.375" /><polygon class="grainline-arrow" points="5.142857,185.626059 3.214286,181.768916 7.071429,181.768916" fill="#475569" /></g></svg>